<?xml version="1.0" encoding="UTF-8" standalone="no"?>
<!-- Created with Inkscape (http://www.inkscape.org/) -->

<svg
   xmlns:ns0="http://www.iki.fi/pav/software/textext/"
   xmlns:dc="http://purl.org/dc/elements/1.1/"
   xmlns:cc="http://creativecommons.org/ns#"
   xmlns:rdf="http://www.w3.org/1999/02/22-rdf-syntax-ns#"
   xmlns:svg="http://www.w3.org/2000/svg"
   xmlns="http://www.w3.org/2000/svg"
   xmlns:xlink="http://www.w3.org/1999/xlink"
   xmlns:sodipodi="http://sodipodi.sourceforge.net/DTD/sodipodi-0.dtd"
   xmlns:inkscape="http://www.inkscape.org/namespaces/inkscape"
   width="744.09448819"
   height="1052.3622047"
   id="svg2"
   version="1.1"
   inkscape:version="0.48.0 r9654"
   sodipodi:docname="New document 1">
  <sodipodi:namedview
     id="base"
     pagecolor="#ffffff"
     bordercolor="#666666"
     borderopacity="1.0"
     inkscape:pageopacity="0.0"
     inkscape:pageshadow="2"
     inkscape:zoom="0.35"
     inkscape:cx="-44.641377"
     inkscape:cy="612.93598"
     inkscape:document-units="px"
     inkscape:current-layer="g3750"
     showgrid="false"
     inkscape:window-width="768"
     inkscape:window-height="673"
     inkscape:window-x="331"
     inkscape:window-y="2"
     inkscape:window-maximized="0">
    <inkscape:grid
       type="xygrid"
       id="grid3795" />
  </sodipodi:namedview>
  <defs
     id="defs4" />
  <metadata
     id="metadata7">
    <rdf:RDF>
      <cc:Work
         rdf:about="">
        <dc:format>image/svg+xml</dc:format>
        <dc:type
           rdf:resource="http://purl.org/dc/dcmitype/StillImage" />
        <dc:title></dc:title>
      </cc:Work>
    </rdf:RDF>
  </metadata>
  <g
     id="layer1"
     inkscape:groupmode="layer"
     inkscape:label="Layer 1">
    <g
       id="g2990"
       ns0:preamble=""
       ns0:text="$\\Omega$\n"
       transform="matrix(106.00707,0,0,67.234921,-23507.881,-8460.4348)">
      <defs
         id="defs2992">
        <g
           id="g2994">
          <symbol
             id="textext-c8abb581-0"
             overflow="visible"
             style="overflow:visible">
            <path
               id="path2997"
               d="m 6.75,-1.609375 -0.25,0 c -0.046875,0.25 -0.09375,0.484375 -0.1875,0.71875 -0.046875,0.15625 -0.078125,0.25 -0.65625,0.25 l -0.796875,0 C 5,-1.203125 5.296875,-1.6875 5.75,-2.34375 c 0.46875,-0.703125 0.875,-1.390625 0.875,-2.1875 0,-1.375 -1.34375,-2.5 -3.03125,-2.5 -1.703125,0 -3.03125,1.140625 -3.03125,2.5 0,0.796875 0.40625,1.484375 0.875,2.1875 0.4375,0.65625 0.75,1.140625 0.890625,1.703125 l -0.796875,0 C 0.953125,-0.640625 0.921875,-0.734375 0.875,-0.875 0.78125,-1.109375 0.734375,-1.359375 0.6875,-1.609375 l -0.25,0 L 0.765625,0 2.359375,0 c 0.21875,0 0.25,0 0.25,-0.203125 0,-0.703125 -0.3125,-1.578125 -0.53125,-2.21875 -0.21875,-0.578125 -0.5,-1.359375 -0.5,-2.109375 0,-1.59375 1.109375,-2.28125 2.015625,-2.28125 0.953125,0 2.015625,0.71875 2.015625,2.28125 0,0.75 -0.28125,1.5 -0.5625,2.3125 -0.15625,0.421875 -0.46875,1.328125 -0.46875,2.015625 C 4.578125,0 4.609375,0 4.828125,0 l 1.59375,0 z m 0,0"
               style="stroke:none"
               inkscape:connector-curvature="0" />
          </symbol>
        </g>
      </defs>
      <g
         id="textext-c8abb581-1">
        <g
           id="g3000"
           style="fill:#000000;fill-opacity:1">
          <g
             id="g3750"
             ns0:preamble=""
             ns0:text="$\\left( \\right)$\n"
             transform="translate(-8.5439045,-2.252231)">
            <defs
               id="defs3752">
              <g
                 id="g3754">
                <symbol
                   id="textext-aaba26be-0"
                   overflow="visible"
                   style="overflow:visible">
                  <path
                     id="path3757"
                     d="m 3.296875,2.390625 c 0,-0.03125 0,-0.046875 -0.171875,-0.21875 C 1.890625,0.921875 1.5625,-0.96875 1.5625,-2.5 c 0,-1.734375 0.375,-3.46875 1.609375,-4.703125 0.125,-0.125 0.125,-0.140625 0.125,-0.171875 0,-0.078125 -0.03125,-0.109375 -0.09375,-0.109375 -0.109375,0 -1,0.6875 -1.59375,1.953125 -0.5,1.09375 -0.625,2.203125 -0.625,3.03125 0,0.78125 0.109375,1.984375 0.65625,3.125 C 2.25,1.84375 3.09375,2.5 3.203125,2.5 c 0.0625,0 0.09375,-0.03125 0.09375,-0.109375 z m 0,0"
                     style="stroke:none"
                     inkscape:connector-curvature="0" />
                </symbol>
                <symbol
                   id="textext-aaba26be-1"
                   overflow="visible"
                   style="overflow:visible">
                  <path
                     id="path3760"
                     d="m 2.875,-2.5 c 0,-0.765625 -0.109375,-1.96875 -0.65625,-3.109375 -0.59375,-1.21875 -1.453125,-1.875 -1.546875,-1.875 -0.0625,0 -0.109375,0.046875 -0.109375,0.109375 0,0.03125 0,0.046875 0.1875,0.234375 0.984375,0.984375 1.546875,2.5625 1.546875,4.640625 0,1.71875 -0.359375,3.46875 -1.59375,4.71875 C 0.5625,2.34375 0.5625,2.359375 0.5625,2.390625 0.5625,2.453125 0.609375,2.5 0.671875,2.5 0.765625,2.5 1.671875,1.8125 2.25,0.546875 2.765625,-0.546875 2.875,-1.65625 2.875,-2.5 z m 0,0"
                     style="stroke:none"
                     inkscape:connector-curvature="0" />
                </symbol>
              </g>
            </defs>
            <g
               id="g3849"
               transform="translate(0.64955234,-0.08498847)">
              <use
                 style="fill:#4d4d4d;fill-opacity:1"
                 id="use3821"
                 y="134.765"
                 x="227.30646"
                 xlink:href="#textext-aaba26be-1"
                 width="744.09448"
                 height="1052.3622"
                 transform="matrix(0.19075197,0,0,1.0042562,184.79421,0.81811316)" />
              <path
                 style="fill:none;stroke:#000000;stroke-width:0.01146887px;stroke-linecap:butt;stroke-linejoin:miter;stroke-opacity:1"
                 d="m 223.96777,129.20492 0,8.92394"
                 id="path3823"
                 inkscape:connector-curvature="0" />
              <path
                 style="fill:none;stroke:#000000;stroke-width:0.011845px;stroke-linecap:butt;stroke-linejoin:miter;stroke-opacity:1"
                 d="m 222.45844,131.58464 5.66,0"
                 id="path3825"
                 inkscape:connector-curvature="0" />
              <path
                 style="fill:none;stroke:#000000;stroke-width:0.01146887px;stroke-linecap:butt;stroke-linejoin:miter;stroke-opacity:1"
                 d="m 225.09977,129.20492 0,8.92394"
                 id="path3827"
                 inkscape:connector-curvature="0" />
              <path
                 style="fill:none;stroke:#000000;stroke-width:0.011845px;stroke-linecap:butt;stroke-linejoin:miter;stroke-opacity:1"
                 d="m 222.45844,133.36943 5.66,0"
                 id="path3829"
                 inkscape:connector-curvature="0" />
              <path
                 style="fill:none;stroke:#000000;stroke-width:0.01146887px;stroke-linecap:butt;stroke-linejoin:miter;stroke-opacity:1"
                 d="m 227.36377,129.20492 0,8.92394"
                 id="path3831"
                 inkscape:connector-curvature="0" />
              <path
                 style="fill:none;stroke:#000000;stroke-width:0.011845px;stroke-linecap:butt;stroke-linejoin:miter;stroke-opacity:1"
                 d="m 228.11844,136.939 -5.66,0"
                 id="path3833"
                 inkscape:connector-curvature="0" />
              <rect
                 style="fill:#4d4d4d;fill-opacity:1;fill-rule:nonzero;stroke:#000000;stroke-width:0.011845;stroke-linejoin:miter;stroke-miterlimit:4;stroke-opacity:1;stroke-dasharray:none;stroke-dashoffset:0"
                 id="rect3835"
                 width="1.5093294"
                 height="2.3797138"
                 x="222.45844"
                 y="129.20493" />
              <rect
                 style="fill:#4d4d4d;fill-opacity:1;fill-rule:nonzero;stroke:#000000;stroke-width:0.011845;stroke-linejoin:miter;stroke-miterlimit:4;stroke-opacity:1;stroke-dasharray:none;stroke-dashoffset:0"
                 id="rect3837"
                 width="1.1319996"
                 height="1.7847863"
                 x="223.96777"
                 y="131.58464" />
              <rect
                 style="fill:#4d4d4d;fill-opacity:1;fill-rule:nonzero;stroke:#000000;stroke-width:0.011845;stroke-linejoin:miter;stroke-miterlimit:4;stroke-opacity:1;stroke-dasharray:none;stroke-dashoffset:0"
                 id="rect3839"
                 width="2.2639992"
                 height="3.5695727"
                 x="225.09976"
                 y="133.36943" />
              <rect
                 style="fill:#4d4d4d;fill-opacity:1;fill-rule:nonzero;stroke:#000000;stroke-width:0.011845;stroke-linejoin:miter;stroke-miterlimit:4;stroke-opacity:1;stroke-dasharray:none;stroke-dashoffset:0"
                 id="rect3841"
                 width="0.75466639"
                 height="1.1898576"
                 x="227.36377"
                 y="136.939" />
              <use
                 transform="matrix(-0.19075197,0,0,1.0042562,265.75624,0.81811306)"
                 height="1052.3622"
                 width="744.09448"
                 xlink:href="#textext-aaba26be-1"
                 x="227.30646"
                 y="134.765"
                 id="use3843"
                 style="fill:#4d4d4d;fill-opacity:1" />
            </g>
            <g
               id="g3863"
               transform="translate(0.11320002,-0.12748339)">
              <use
                 transform="matrix(0.19075197,0,0,1.0042562,193.39202,1.0730827)"
                 height="1052.3622"
                 width="744.09448"
                 xlink:href="#textext-aaba26be-1"
                 x="227.30646"
                 y="134.765"
                 id="use3767"
                 style="fill:#4d4d4d;fill-opacity:1" />
              <path
                 inkscape:connector-curvature="0"
                 id="path3797"
                 d="m 232.56558,129.45989 0,8.92394"
                 style="fill:none;stroke:#000000;stroke-width:0.01146887px;stroke-linecap:butt;stroke-linejoin:miter;stroke-opacity:1" />
              <path
                 transform="matrix(0.00943333,0,0,0.01487322,230.30158,128.08617)"
                 inkscape:connector-curvature="0"
                 id="path3799"
                 d="m 80,252.36218 600,0"
                 style="fill:none;stroke:#000000;stroke-width:1px;stroke-linecap:butt;stroke-linejoin:miter;stroke-opacity:1" />
              <path
                 inkscape:connector-curvature="0"
                 id="path3801"
                 d="m 233.69758,129.45989 0,8.92394"
                 style="fill:none;stroke:#000000;stroke-width:0.01146887px;stroke-linecap:butt;stroke-linejoin:miter;stroke-opacity:1" />
              <path
                 transform="matrix(0.00943333,0,0,0.01487322,230.30158,128.08617)"
                 inkscape:connector-curvature="0"
                 id="path3803"
                 d="m 80,372.36218 600,0"
                 style="fill:none;stroke:#000000;stroke-width:1px;stroke-linecap:butt;stroke-linejoin:miter;stroke-opacity:1" />
              <path
                 inkscape:connector-curvature="0"
                 id="path3805"
                 d="m 235.96158,129.45989 0,8.92394"
                 style="fill:none;stroke:#000000;stroke-width:0.01146887px;stroke-linecap:butt;stroke-linejoin:miter;stroke-opacity:1" />
              <path
                 transform="matrix(0.00943333,0,0,0.01487322,230.30158,128.08617)"
                 inkscape:connector-curvature="0"
                 id="path3809"
                 d="m 680,612.36218 -600,0"
                 style="fill:none;stroke:#000000;stroke-width:1px;stroke-linecap:butt;stroke-linejoin:miter;stroke-opacity:1" />
              <use
                 style="fill:#4d4d4d;fill-opacity:1"
                 id="use3819"
                 y="134.765"
                 x="227.30646"
                 xlink:href="#textext-aaba26be-1"
                 width="744.09448"
                 height="1052.3622"
                 transform="matrix(-0.19075197,0,0,1.0042562,274.35405,1.0730826)" />
              <rect
                 transform="matrix(0.00943333,0,0,0.01487322,230.30158,128.08617)"
                 y="252.36218"
                 x="240"
                 height="120"
                 width="120"
                 id="rect3845"
                 style="fill:#4d4d4d;fill-opacity:1;fill-rule:nonzero;stroke:#000000;stroke-width:1;stroke-linejoin:miter;stroke-miterlimit:4;stroke-opacity:1;stroke-dasharray:none;stroke-dashoffset:0" />
              <rect
                 transform="matrix(0.00943333,0,0,0.01487322,230.30158,128.08617)"
                 y="252.36218"
                 x="600"
                 height="120"
                 width="80"
                 id="rect3847"
                 style="fill:#4d4d4d;fill-opacity:1;fill-rule:nonzero;stroke:#000000;stroke-width:1;stroke-linejoin:miter;stroke-miterlimit:4;stroke-opacity:1;stroke-dasharray:none;stroke-dashoffset:0" />
            </g>
            <g
               transform="matrix(0.08175183,0,0,0.08175183,203.26688,118.23504)"
               ns0:text="(a)\n"
               ns0:preamble=""
               id="g3919">
              <defs
                 id="defs3921">
                <g
                   id="g3923">
                  <symbol
                     style="overflow:visible"
                     overflow="visible"
                     id="textext-e5ef42e6-0">
                    <path
                       inkscape:connector-curvature="0"
                       style="stroke:none"
                       d="m 3.296875,2.390625 c 0,-0.03125 0,-0.046875 -0.171875,-0.21875 C 1.890625,0.921875 1.5625,-0.96875 1.5625,-2.5 c 0,-1.734375 0.375,-3.46875 1.609375,-4.703125 0.125,-0.125 0.125,-0.140625 0.125,-0.171875 0,-0.078125 -0.03125,-0.109375 -0.09375,-0.109375 -0.109375,0 -1,0.6875 -1.59375,1.953125 -0.5,1.09375 -0.625,2.203125 -0.625,3.03125 0,0.78125 0.109375,1.984375 0.65625,3.125 C 2.25,1.84375 3.09375,2.5 3.203125,2.5 c 0.0625,0 0.09375,-0.03125 0.09375,-0.109375 z m 0,0"
                       id="path3926" />
                  </symbol>
                  <symbol
                     style="overflow:visible"
                     overflow="visible"
                     id="textext-e5ef42e6-1">
                    <path
                       inkscape:connector-curvature="0"
                       style="stroke:none"
                       d="m 3.3125,-0.75 c 0.046875,0.390625 0.3125,0.8125 0.78125,0.8125 0.21875,0 0.828125,-0.140625 0.828125,-0.953125 l 0,-0.5625 -0.25,0 0,0.5625 c 0,0.578125 -0.25,0.640625 -0.359375,0.640625 -0.328125,0 -0.375,-0.453125 -0.375,-0.5 l 0,-1.984375 c 0,-0.421875 0,-0.8125 -0.359375,-1.1875 C 3.1875,-4.3125 2.6875,-4.46875 2.21875,-4.46875 c -0.828125,0 -1.515625,0.46875 -1.515625,1.125 0,0.296875 0.203125,0.46875 0.46875,0.46875 0.28125,0 0.453125,-0.203125 0.453125,-0.453125 0,-0.125 -0.046875,-0.453125 -0.515625,-0.453125 C 1.390625,-4.140625 1.875,-4.25 2.1875,-4.25 c 0.5,0 1.0625,0.390625 1.0625,1.28125 l 0,0.359375 c -0.515625,0.03125 -1.203125,0.0625 -1.828125,0.359375 -0.75,0.34375 -1,0.859375 -1,1.296875 0,0.8125 0.96875,1.0625 1.59375,1.0625 0.65625,0 1.109375,-0.40625 1.296875,-0.859375 z M 3.25,-2.390625 l 0,1 c 0,0.9375 -0.71875,1.28125 -1.171875,1.28125 -0.484375,0 -0.890625,-0.34375 -0.890625,-0.84375 0,-0.546875 0.421875,-1.375 2.0625,-1.4375 z m 0,0"
                       id="path3929" />
                  </symbol>
                  <symbol
                     style="overflow:visible"
                     overflow="visible"
                     id="textext-e5ef42e6-2">
                    <path
                       inkscape:connector-curvature="0"
                       style="stroke:none"
                       d="m 2.875,-2.5 c 0,-0.765625 -0.109375,-1.96875 -0.65625,-3.109375 -0.59375,-1.21875 -1.453125,-1.875 -1.546875,-1.875 -0.0625,0 -0.109375,0.046875 -0.109375,0.109375 0,0.03125 0,0.046875 0.1875,0.234375 0.984375,0.984375 1.546875,2.5625 1.546875,4.640625 0,1.71875 -0.359375,3.46875 -1.59375,4.71875 C 0.5625,2.34375 0.5625,2.359375 0.5625,2.390625 0.5625,2.453125 0.609375,2.5 0.671875,2.5 0.765625,2.5 1.671875,1.8125 2.25,0.546875 2.765625,-0.546875 2.875,-1.65625 2.875,-2.5 z m 0,0"
                       id="path3932" />
                  </symbol>
                </g>
              </defs>
              <g
                 id="textext-e5ef42e6-3">
                <g
                   style="fill:#000000;fill-opacity:1"
                   id="g3935">
                  <use
                     height="1052.3622"
                     width="744.09448"
                     xlink:href="#textext-e5ef42e6-0"
                     x="223.43201"
                     y="134.765"
                     id="use3937" />
                  <use
                     height="1052.3622"
                     width="744.09448"
                     xlink:href="#textext-e5ef42e6-1"
                     x="227.30646"
                     y="134.765"
                     id="use3939" />
                  <use
                     height="1052.3622"
                     width="744.09448"
                     xlink:href="#textext-e5ef42e6-2"
                     x="232.28775"
                     y="134.765"
                     id="use3941" />
                </g>
              </g>
            </g>
            <g
               id="g4085"
               transform="matrix(0.08175183,0,0,0.08175183,211.37955,118.32003)"
               ns0:preamble=""
               ns0:text="(b)\n\n">
              <defs
                 id="defs4087">
                <g
                   id="g4089">
                  <symbol
                     id="textext-6152ace3-0"
                     overflow="visible">
                    <path
                       id="path4092"
                       d="M 3.296875 2.390625 C 3.296875 2.359375 3.296875 2.34375 3.125 2.171875 C 1.890625 0.921875 1.5625 -0.96875 1.5625 -2.5 C 1.5625 -4.234375 1.9375 -5.96875 3.171875 -7.203125 C 3.296875 -7.328125 3.296875 -7.34375 3.296875 -7.375 C 3.296875 -7.453125 3.265625 -7.484375 3.203125 -7.484375 C 3.09375 -7.484375 2.203125 -6.796875 1.609375 -5.53125 C 1.109375 -4.4375 0.984375 -3.328125 0.984375 -2.5 C 0.984375 -1.71875 1.09375 -0.515625 1.640625 0.625 C 2.25 1.84375 3.09375 2.5 3.203125 2.5 C 3.265625 2.5 3.296875 2.46875 3.296875 2.390625 Z M 3.296875 2.390625 "
                       style="stroke:none;" />
                  </symbol>
                  <symbol
                     id="textext-6152ace3-1"
                     overflow="visible">
                    <path
                       id="path4095"
                       d="M 1.71875 -3.765625 L 1.71875 -6.921875 L 0.28125 -6.8125 L 0.28125 -6.5 C 0.984375 -6.5 1.0625 -6.4375 1.0625 -5.9375 L 1.0625 0 L 1.3125 0 C 1.3125 -0.015625 1.390625 -0.15625 1.671875 -0.625 C 1.8125 -0.390625 2.234375 0.109375 2.96875 0.109375 C 4.15625 0.109375 5.1875 -0.875 5.1875 -2.15625 C 5.1875 -3.421875 4.21875 -4.40625 3.078125 -4.40625 C 2.296875 -4.40625 1.875 -3.9375 1.71875 -3.765625 Z M 1.75 -1.140625 L 1.75 -3.1875 C 1.75 -3.375 1.75 -3.390625 1.859375 -3.546875 C 2.25 -4.109375 2.796875 -4.1875 3.03125 -4.1875 C 3.484375 -4.1875 3.84375 -3.921875 4.078125 -3.546875 C 4.34375 -3.140625 4.359375 -2.578125 4.359375 -2.15625 C 4.359375 -1.796875 4.34375 -1.203125 4.0625 -0.75 C 3.84375 -0.4375 3.46875 -0.109375 2.9375 -0.109375 C 2.484375 -0.109375 2.125 -0.34375 1.890625 -0.71875 C 1.75 -0.921875 1.75 -0.953125 1.75 -1.140625 Z M 1.75 -1.140625 "
                       style="stroke:none;" />
                  </symbol>
                  <symbol
                     id="textext-6152ace3-2"
                     overflow="visible">
                    <path
                       id="path4098"
                       d="M 2.875 -2.5 C 2.875 -3.265625 2.765625 -4.46875 2.21875 -5.609375 C 1.625 -6.828125 0.765625 -7.484375 0.671875 -7.484375 C 0.609375 -7.484375 0.5625 -7.4375 0.5625 -7.375 C 0.5625 -7.34375 0.5625 -7.328125 0.75 -7.140625 C 1.734375 -6.15625 2.296875 -4.578125 2.296875 -2.5 C 2.296875 -0.78125 1.9375 0.96875 0.703125 2.21875 C 0.5625 2.34375 0.5625 2.359375 0.5625 2.390625 C 0.5625 2.453125 0.609375 2.5 0.671875 2.5 C 0.765625 2.5 1.671875 1.8125 2.25 0.546875 C 2.765625 -0.546875 2.875 -1.65625 2.875 -2.5 Z M 2.875 -2.5 "
                       style="stroke:none;" />
                  </symbol>
                </g>
              </defs>
              <g
                 id="textext-6152ace3-3">
                <g
                   id="g4101"
                   style="fill:rgb(0%,0%,0%);fill-opacity:1;">
                  <use
                     id="use4103"
                     y="134.765"
                     x="223.432"
                     xlink:href="#textext-6152ace3-0" />
                  <use
                     id="use4105"
                     y="134.765"
                     x="227.306455"
                     xlink:href="#textext-6152ace3-1" />
                  <use
                     id="use4107"
                     y="134.765"
                     x="232.841676"
                     xlink:href="#textext-6152ace3-2" />
                </g>
              </g>
            </g>
          </g>
        </g>
      </g>
    </g>
  </g>
</svg>
