<?xml version="1.0" encoding="UTF-8" standalone="no"?>
<!-- Created with Inkscape (http://www.inkscape.org/) -->

<svg
   xmlns:ns0="http://www.iki.fi/pav/software/textext/"
   xmlns:dc="http://purl.org/dc/elements/1.1/"
   xmlns:cc="http://creativecommons.org/ns#"
   xmlns:rdf="http://www.w3.org/1999/02/22-rdf-syntax-ns#"
   xmlns:svg="http://www.w3.org/2000/svg"
   xmlns="http://www.w3.org/2000/svg"
   xmlns:xlink="http://www.w3.org/1999/xlink"
   xmlns:sodipodi="http://sodipodi.sourceforge.net/DTD/sodipodi-0.dtd"
   xmlns:inkscape="http://www.inkscape.org/namespaces/inkscape"
   width="744.09448819"
   height="1052.3622047"
   id="svg20068"
   version="1.1"
   inkscape:version="0.48.0 r9654"
   sodipodi:docname="New document 12">
  <sodipodi:namedview
     id="base"
     pagecolor="#ffffff"
     bordercolor="#666666"
     borderopacity="1.0"
     inkscape:pageopacity="0.0"
     inkscape:pageshadow="2"
     inkscape:zoom="0.35"
     inkscape:cx="-133.57143"
     inkscape:cy="520"
     inkscape:document-units="px"
     inkscape:current-layer="layer1"
     showgrid="false"
     inkscape:window-width="1221"
     inkscape:window-height="673"
     inkscape:window-x="60"
     inkscape:window-y="60"
     inkscape:window-maximized="0" />
  <defs
     id="defs20070">
    <inkscape:perspective
       id="perspective20076"
       inkscape:persp3d-origin="372.04724 : 350.78739 : 1"
       inkscape:vp_z="744.09448 : 526.18109 : 1"
       inkscape:vp_y="0 : 1000 : 0"
       inkscape:vp_x="0 : 526.18109 : 1"
       sodipodi:type="inkscape:persp3d" />
  </defs>
  <metadata
     id="metadata20073">
    <rdf:RDF>
      <cc:Work
         rdf:about="">
        <dc:format>image/svg+xml</dc:format>
        <dc:type
           rdf:resource="http://purl.org/dc/dcmitype/StillImage" />
        <dc:title></dc:title>
      </cc:Work>
    </rdf:RDF>
  </metadata>
  <g
     id="layer1"
     inkscape:groupmode="layer"
     inkscape:label="Layer 1">
    <g
       id="g20084"
       ns0:preamble=""
       ns0:text="$|egd_+ 0 \\rangle$\n"
       transform="matrix(13.215105,0,0,12.732618,-2743.7509,-1493.3349)">
      <defs
         id="defs20086">
        <g
           id="g20088">
          <symbol
             id="textext-403624d5-0"
             overflow="visible"
             style="overflow:visible">
            <path
               id="path20091"
               d="m 1.578125,-7.140625 c 0,-0.140625 0,-0.34375 -0.1875,-0.34375 -0.203125,0 -0.203125,0.203125 -0.203125,0.34375 l 0,9.296875 c 0,0.140625 0,0.34375 0.203125,0.34375 0.1875,0 0.1875,-0.203125 0.1875,-0.34375 z m 0,0"
               style="stroke:none"
               inkscape:connector-curvature="0" />
          </symbol>
          <symbol
             id="textext-403624d5-1"
             overflow="visible"
             style="overflow:visible">
            <path
               id="path20094"
               d="m 2.71875,-2.3125 c 0.046875,-0.125 0.046875,-0.171875 0.046875,-0.1875 0,0 0,-0.046875 -0.046875,-0.171875 L 0.984375,-7.25 C 0.921875,-7.375 0.890625,-7.484375 0.75,-7.484375 c -0.109375,0 -0.1875,0.09375 -0.1875,0.203125 0,0.015625 0,0.0625 0.046875,0.1875 l 1.75,4.59375 -1.75,4.609375 C 0.5625,2.234375 0.5625,2.28125 0.5625,2.296875 0.5625,2.40625 0.640625,2.5 0.75,2.5 0.890625,2.5 0.921875,2.40625 0.96875,2.296875 z m 0,0"
               style="stroke:none"
               inkscape:connector-curvature="0" />
          </symbol>
          <symbol
             id="textext-403624d5-2"
             overflow="visible"
             style="overflow:visible">
            <path
               id="path20097"
               d="m 1.859375,-2.296875 c 0.296875,0 1.03125,-0.03125 1.53125,-0.234375 0.703125,-0.296875 0.75,-0.890625 0.75,-1.03125 0,-0.4375 -0.375,-0.84375 -1.0625,-0.84375 -1.109375,0 -2.625,0.96875 -2.625,2.71875 0,1.015625 0.59375,1.796875 1.578125,1.796875 1.421875,0 2.25,-1.0625 2.25,-1.171875 0,-0.0625 -0.046875,-0.140625 -0.109375,-0.140625 -0.0625,0 -0.078125,0.03125 -0.140625,0.109375 -0.78125,0.984375 -1.875,0.984375 -1.984375,0.984375 -0.78125,0 -0.875,-0.84375 -0.875,-1.15625 0,-0.125 0.015625,-0.421875 0.15625,-1.03125 z m -0.46875,-0.21875 C 1.78125,-4.03125 2.8125,-4.1875 3.078125,-4.1875 c 0.453125,0 0.734375,0.296875 0.734375,0.625 0,1.046875 -1.59375,1.046875 -2.015625,1.046875 z m 0,0"
               style="stroke:none"
               inkscape:connector-curvature="0" />
          </symbol>
          <symbol
             id="textext-403624d5-3"
             overflow="visible"
             style="overflow:visible">
            <path
               id="path20100"
               d="M 4.6875,-3.765625 C 4.703125,-3.8125 4.71875,-3.875 4.71875,-3.9375 c 0,-0.171875 -0.109375,-0.265625 -0.28125,-0.265625 -0.09375,0 -0.375,0.0625 -0.40625,0.421875 -0.1875,-0.359375 -0.53125,-0.625 -0.9375,-0.625 -1.125,0 -2.359375,1.390625 -2.359375,2.828125 0,0.984375 0.59375,1.578125 1.3125,1.578125 0.59375,0 1.0625,-0.46875 1.15625,-0.578125 L 3.21875,-0.5625 C 3.015625,0.3125 2.890625,0.734375 2.890625,0.75 2.84375,0.84375 2.515625,1.828125 1.453125,1.828125 1.265625,1.828125 0.9375,1.8125 0.65625,1.71875 0.953125,1.640625 1.0625,1.375 1.0625,1.203125 c 0,-0.15625 -0.109375,-0.34375 -0.375,-0.34375 -0.21875,0 -0.53125,0.171875 -0.53125,0.578125 0,0.40625 0.359375,0.609375 1.3125,0.609375 1.25,0 1.96875,-0.78125 2.125,-1.375 z M 3.40625,-1.28125 C 3.34375,-1.015625 3.109375,-0.765625 2.890625,-0.578125 2.6875,-0.40625 2.375,-0.21875 2.078125,-0.21875 c -0.5,0 -0.640625,-0.515625 -0.640625,-0.921875 0,-0.46875 0.28125,-1.65625 0.5625,-2.15625 C 2.265625,-3.78125 2.6875,-4.1875 3.109375,-4.1875 c 0.65625,0 0.796875,0.8125 0.796875,0.859375 0,0.046875 -0.015625,0.109375 -0.03125,0.140625 z m 0,0"
               style="stroke:none"
               inkscape:connector-curvature="0" />
          </symbol>
          <symbol
             id="textext-403624d5-4"
             overflow="visible"
             style="overflow:visible">
            <path
               id="path20103"
               d="m 5.140625,-6.8125 c 0,0 0,-0.109375 -0.125,-0.109375 -0.15625,0 -1.09375,0.09375 -1.265625,0.109375 -0.078125,0.015625 -0.140625,0.0625 -0.140625,0.1875 0,0.125 0.09375,0.125 0.234375,0.125 0.484375,0 0.5,0.0625 0.5,0.171875 L 4.3125,-6.125 3.71875,-3.765625 C 3.53125,-4.140625 3.25,-4.40625 2.796875,-4.40625 c -1.15625,0 -2.390625,1.46875 -2.390625,2.921875 0,0.9375 0.546875,1.59375 1.3125,1.59375 0.203125,0 0.703125,-0.046875 1.296875,-0.75 0.078125,0.421875 0.4375,0.75 0.90625,0.75 0.359375,0 0.578125,-0.234375 0.75,-0.546875 0.15625,-0.359375 0.296875,-0.96875 0.296875,-0.984375 0,-0.109375 -0.09375,-0.109375 -0.125,-0.109375 -0.09375,0 -0.109375,0.046875 -0.140625,0.1875 -0.171875,0.640625 -0.34375,1.234375 -0.75,1.234375 -0.28125,0 -0.296875,-0.265625 -0.296875,-0.453125 0,-0.25 0.015625,-0.3125 0.046875,-0.484375 z m -2.0625,5.625 C 3.015625,-1 3.015625,-0.984375 2.875,-0.8125 2.4375,-0.265625 2.03125,-0.109375 1.75,-0.109375 c -0.5,0 -0.640625,-0.546875 -0.640625,-0.9375 0,-0.5 0.3125,-1.71875 0.546875,-2.1875 0.3125,-0.578125 0.75,-0.953125 1.15625,-0.953125 0.640625,0 0.78125,0.8125 0.78125,0.875 0,0.0625 -0.015625,0.125 -0.03125,0.171875 z m 0,0"
               style="stroke:none"
               inkscape:connector-curvature="0" />
          </symbol>
          <symbol
             id="textext-403624d5-5"
             overflow="visible"
             style="overflow:visible">
            <path
               id="path20106"
               d="m 3.21875,-1.578125 2.140625,0 c 0.09375,0 0.25,0 0.25,-0.15625 0,-0.1875 -0.15625,-0.1875 -0.25,-0.1875 l -2.140625,0 0,-2.140625 c 0,-0.078125 0,-0.25 -0.15625,-0.25 -0.171875,0 -0.171875,0.15625 -0.171875,0.25 l 0,2.140625 -2.140625,0 c -0.09375,0 -0.265625,0 -0.265625,0.171875 0,0.171875 0.15625,0.171875 0.265625,0.171875 l 2.140625,0 0,2.140625 c 0,0.09375 0,0.265625 0.15625,0.265625 0.171875,0 0.171875,-0.171875 0.171875,-0.265625 z m 0,0"
               style="stroke:none"
               inkscape:connector-curvature="0" />
          </symbol>
          <symbol
             id="textext-403624d5-6"
             overflow="visible"
             style="overflow:visible">
            <path
               id="path20109"
               d="m 4.578125,-3.1875 c 0,-0.796875 -0.046875,-1.59375 -0.390625,-2.328125 -0.453125,-0.96875 -1.28125,-1.125 -1.6875,-1.125 -0.609375,0 -1.328125,0.265625 -1.75,1.1875 -0.3125,0.6875 -0.359375,1.46875 -0.359375,2.265625 0,0.75 0.03125,1.640625 0.453125,2.40625 0.421875,0.796875 1.15625,1 1.640625,1 0.53125,0 1.296875,-0.203125 1.734375,-1.15625 0.3125,-0.6875 0.359375,-1.46875 0.359375,-2.25 z M 2.484375,0 C 2.09375,0 1.5,-0.25 1.328125,-1.203125 1.21875,-1.796875 1.21875,-2.71875 1.21875,-3.3125 c 0,-0.640625 0,-1.296875 0.078125,-1.828125 0.1875,-1.1875 0.9375,-1.28125 1.1875,-1.28125 0.328125,0 0.984375,0.1875 1.171875,1.171875 0.109375,0.5625 0.109375,1.3125 0.109375,1.9375 0,0.75 0,1.421875 -0.109375,2.0625 C 3.5,-0.296875 2.9375,0 2.484375,0 z m 0,0"
               style="stroke:none"
               inkscape:connector-curvature="0" />
          </symbol>
        </g>
      </defs>
      <g
         id="textext-403624d5-7">
        <g
           id="g20112"
           style="fill:#000000;fill-opacity:1">
          <use
             id="use20114"
             y="134.765"
             x="223.43201"
             xlink:href="#textext-403624d5-0"
             width="744.09448"
             height="1052.3622" />
        </g>
        <g
           id="g20116"
           style="fill:#000000;fill-opacity:1">
          <use
             id="use20118"
             y="134.765"
             x="226.2"
             xlink:href="#textext-403624d5-2"
             width="744.09448"
             height="1052.3622" />
          <use
             id="use20120"
             y="134.765"
             x="230.83859"
             xlink:href="#textext-403624d5-3"
             width="744.09448"
             height="1052.3622" />
        </g>
        <g
           id="g20122"
           style="fill:#000000;fill-opacity:1">
          <use
             id="use20124"
             y="134.765"
             x="235.9494"
             xlink:href="#textext-403624d5-4"
             width="744.09448"
             height="1052.3622" />
        </g>
        <g
           id="g20126"
           style="fill:#000000;fill-opacity:1">
          <use
             id="use20128"
             y="136.259"
             x="241.133"
             xlink:href="#textext-403624d5-5"
             width="744.09448"
             height="1052.3622" />
        </g>
        <g
           id="g20130"
           style="fill:#000000;fill-opacity:1">
          <use
             id="use20132"
             y="134.765"
             x="247.74699"
             xlink:href="#textext-403624d5-6"
             width="744.09448"
             height="1052.3622" />
        </g>
        <g
           id="g20134"
           style="fill:#000000;fill-opacity:1">
          <use
             id="use20136"
             y="134.765"
             x="252.729"
             xlink:href="#textext-403624d5-1"
             width="744.09448"
             height="1052.3622" />
        </g>
      </g>
    </g>
    <path
       style="fill:none;stroke:#000000;stroke-width:3;stroke-linejoin:miter;stroke-miterlimit:4;stroke-opacity:1;stroke-dasharray:none;stroke-dashoffset:0"
       d="m 370.08481,128.92834 0,-44.324292 -102.23133,0 0,44.324292"
       id="rect20177"
       inkscape:connector-curvature="0"
       sodipodi:nodetypes="cccc" />
    <path
       sodipodi:nodetypes="cccc"
       inkscape:connector-curvature="0"
       id="path20690"
       d="m 504.37052,260.19723 0,44.32429 -102.23133,0 0,-44.32429"
       style="fill:none;stroke:#000000;stroke-width:3;stroke-linejoin:miter;stroke-miterlimit:4;stroke-opacity:1;stroke-dasharray:none;stroke-dashoffset:0" />
    <path
       style="fill:none;stroke:#000000;stroke-width:2.51559663;stroke-linejoin:miter;stroke-miterlimit:4;stroke-opacity:1;stroke-dasharray:none;stroke-dashoffset:0"
       d="m 601.51338,128.92834 0,-44.324288 -71.88255,0 0,44.324288"
       id="path20692"
       inkscape:connector-curvature="0"
       sodipodi:nodetypes="cccc" />
    <text
       xml:space="preserve"
       style="font-size:53.40039062px;font-style:normal;font-variant:normal;font-weight:normal;font-stretch:normal;line-height:125%;letter-spacing:0px;word-spacing:0px;fill:#000000;fill-opacity:1;stroke:none;font-family:Times New Roman;-inkscape-font-specification:Times New Roman"
       x="246.07864"
       y="45.97768"
       id="text20694"
       sodipodi:linespacing="125%"
       transform="scale(0.8659035,1.1548631)"><tspan
         sodipodi:role="line"
         id="tspan20696"
         x="246.07864"
         y="45.97768">system part</tspan></text>
  </g>
</svg>
