<?xml version="1.0" encoding="UTF-8" standalone="no"?>
<!-- Created with Inkscape (http://www.inkscape.org/) -->

<svg
   xmlns:ns0="http://www.iki.fi/pav/software/textext/"
   xmlns:dc="http://purl.org/dc/elements/1.1/"
   xmlns:cc="http://creativecommons.org/ns#"
   xmlns:rdf="http://www.w3.org/1999/02/22-rdf-syntax-ns#"
   xmlns:svg="http://www.w3.org/2000/svg"
   xmlns="http://www.w3.org/2000/svg"
   xmlns:xlink="http://www.w3.org/1999/xlink"
   xmlns:sodipodi="http://sodipodi.sourceforge.net/DTD/sodipodi-0.dtd"
   xmlns:inkscape="http://www.inkscape.org/namespaces/inkscape"
   width="744.09448819"
   height="1052.3622047"
   id="svg19051"
   version="1.1"
   inkscape:version="0.48.0 r9654"
   sodipodi:docname="lambda_system.svg">
  <sodipodi:namedview
     id="base"
     pagecolor="#ffffff"
     bordercolor="#666666"
     borderopacity="1.0"
     inkscape:pageopacity="0.0"
     inkscape:pageshadow="2"
     inkscape:zoom="1"
     inkscape:cx="61.69902"
     inkscape:cy="936.99143"
     inkscape:document-units="px"
     inkscape:current-layer="layer1"
     showgrid="true"
     inkscape:window-width="1237"
     inkscape:window-height="691"
     inkscape:window-x="40"
     inkscape:window-y="40"
     inkscape:window-maximized="0">
    <inkscape:grid
       id="grid7884"
       type="xygrid" />
  </sodipodi:namedview>
  <defs
     id="defs19053">
    <inkscape:path-effect
       fuse_tolerance="0"
       vertical_pattern="false"
       prop_units="false"
       tang_offset="0"
       normal_offset="0"
       spacing="0"
       scale_y_rel="false"
       prop_scale="1"
       copytype="repeated_stretched"
       pattern="M 0,0 1,0"
       is_visible="true"
       id="path-effect7882"
       effect="skeletal" />
    <marker
       inkscape:stockid="Arrow1Lstart"
       orient="auto"
       refY="0.0"
       refX="0.0"
       id="Arrow1Lstart"
       style="overflow:visible">
      <path
         id="path4017"
         d="M 0.0,0.0 L 5.0,-5.0 L -12.5,0.0 L 5.0,5.0 L 0.0,0.0 z "
         style="fill-rule:evenodd;stroke:#000000;stroke-width:1.0pt;marker-start:none"
         transform="scale(0.8) translate(12.5,0)" />
    </marker>
    <marker
       inkscape:stockid="Arrow1Lend"
       orient="auto"
       refY="0.0"
       refX="0.0"
       id="Arrow1Lend"
       style="overflow:visible;">
      <path
         id="path4020"
         d="M 0.0,0.0 L 5.0,-5.0 L -12.5,0.0 L 5.0,5.0 L 0.0,0.0 z "
         style="fill-rule:evenodd;stroke:#000000;stroke-width:1.0pt;marker-start:none;"
         transform="scale(0.8) rotate(180) translate(12.5,0)" />
    </marker>
    <marker
       style="overflow:visible;"
       id="Arrow2Lend"
       refX="0.0"
       refY="0.0"
       orient="auto"
       inkscape:stockid="Arrow2Lend">
      <path
         transform="scale(1.1) rotate(180) translate(1,0)"
         d="M 8.7185878,4.0337352 L -2.2072895,0.016013256 L 8.7185884,-4.0017078 C 6.9730900,-1.6296469 6.9831476,1.6157441 8.7185878,4.0337352 z "
         style="font-size:12.0;fill-rule:evenodd;stroke-width:0.62500000;stroke-linejoin:round;"
         id="path3832" />
    </marker>
  </defs>
  <metadata
     id="metadata19056">
    <rdf:RDF>
      <cc:Work
         rdf:about="">
        <dc:format>image/svg+xml</dc:format>
        <dc:type
           rdf:resource="http://purl.org/dc/dcmitype/StillImage" />
        <dc:title />
      </cc:Work>
    </rdf:RDF>
  </metadata>
  <g
     id="layer1"
     inkscape:groupmode="layer"
     inkscape:label="Layer 1">
    <path
       sodipodi:nodetypes="ccccsccc"
       inkscape:connector-curvature="0"
       id="rect19059"
       d="m 49.008747,41.370926 0,177.636574 24.685617,0 0,-1.00964 c -4.022617,-17.53766 -8.39538,-50.28972 -8.39538,-87.80865 0,-37.518923 4.372763,-70.270961 8.39538,-87.808632 l 0,-1.009652 z"
       style="fill:#959595;fill-opacity:1;fill-rule:nonzero;stroke:#000000;stroke-width:0.27732384;stroke-linejoin:miter;stroke-miterlimit:4;stroke-opacity:1;stroke-dasharray:none;stroke-dashoffset:0" />
    <g
       id="g19592"
       ns0:preamble=""
       ns0:text="$|g_0\\rangle$\n"
       transform="matrix(2.1602299,0,0,1.7655757,-375.86052,-32.548643)">
      <defs
         id="defs19594">
        <g
           id="g19596">
          <symbol
             id="textext-c9825e95-0"
             overflow="visible"
             style="overflow:visible">
            <path
               id="path19599"
               d="m 1.578125,-7.140625 c 0,-0.140625 0,-0.34375 -0.1875,-0.34375 -0.203125,0 -0.203125,0.203125 -0.203125,0.34375 l 0,9.296875 c 0,0.140625 0,0.34375 0.203125,0.34375 0.1875,0 0.1875,-0.203125 0.1875,-0.34375 z m 0,0"
               style="stroke:none"
               inkscape:connector-curvature="0" />
          </symbol>
          <symbol
             id="textext-c9825e95-1"
             overflow="visible"
             style="overflow:visible">
            <path
               id="path19602"
               d="m 2.71875,-2.3125 c 0.046875,-0.125 0.046875,-0.171875 0.046875,-0.1875 0,0 0,-0.046875 -0.046875,-0.171875 L 0.984375,-7.25 C 0.921875,-7.375 0.890625,-7.484375 0.75,-7.484375 c -0.109375,0 -0.1875,0.09375 -0.1875,0.203125 0,0.015625 0,0.0625 0.046875,0.1875 l 1.75,4.59375 -1.75,4.609375 C 0.5625,2.234375 0.5625,2.28125 0.5625,2.296875 0.5625,2.40625 0.640625,2.5 0.75,2.5 0.890625,2.5 0.921875,2.40625 0.96875,2.296875 z m 0,0"
               style="stroke:none"
               inkscape:connector-curvature="0" />
          </symbol>
          <symbol
             id="textext-c9825e95-2"
             overflow="visible"
             style="overflow:visible">
            <path
               id="path19605"
               d="M 4.6875,-3.765625 C 4.703125,-3.8125 4.71875,-3.875 4.71875,-3.9375 c 0,-0.171875 -0.109375,-0.265625 -0.28125,-0.265625 -0.09375,0 -0.375,0.0625 -0.40625,0.421875 -0.1875,-0.359375 -0.53125,-0.625 -0.9375,-0.625 -1.125,0 -2.359375,1.390625 -2.359375,2.828125 0,0.984375 0.59375,1.578125 1.3125,1.578125 0.59375,0 1.0625,-0.46875 1.15625,-0.578125 L 3.21875,-0.5625 C 3.015625,0.3125 2.890625,0.734375 2.890625,0.75 2.84375,0.84375 2.515625,1.828125 1.453125,1.828125 1.265625,1.828125 0.9375,1.8125 0.65625,1.71875 0.953125,1.640625 1.0625,1.375 1.0625,1.203125 c 0,-0.15625 -0.109375,-0.34375 -0.375,-0.34375 -0.21875,0 -0.53125,0.171875 -0.53125,0.578125 0,0.40625 0.359375,0.609375 1.3125,0.609375 1.25,0 1.96875,-0.78125 2.125,-1.375 z M 3.40625,-1.28125 C 3.34375,-1.015625 3.109375,-0.765625 2.890625,-0.578125 2.6875,-0.40625 2.375,-0.21875 2.078125,-0.21875 c -0.5,0 -0.640625,-0.515625 -0.640625,-0.921875 0,-0.46875 0.28125,-1.65625 0.5625,-2.15625 C 2.265625,-3.78125 2.6875,-4.1875 3.109375,-4.1875 c 0.65625,0 0.796875,0.8125 0.796875,0.859375 0,0.046875 -0.015625,0.109375 -0.03125,0.140625 z m 0,0"
               style="stroke:none"
               inkscape:connector-curvature="0" />
          </symbol>
          <symbol
             id="textext-c9825e95-3"
             overflow="visible"
             style="overflow:visible">
            <path
               id="path19608"
               d="M 3.59375,-2.21875 C 3.59375,-2.984375 3.5,-3.546875 3.1875,-4.03125 2.96875,-4.34375 2.53125,-4.625 1.984375,-4.625 c -1.625,0 -1.625,1.90625 -1.625,2.40625 0,0.5 0,2.359375 1.625,2.359375 1.609375,0 1.609375,-1.859375 1.609375,-2.359375 z M 1.984375,-0.0625 c -0.328125,0 -0.75,-0.1875 -0.890625,-0.75 C 1,-1.21875 1,-1.796875 1,-2.3125 1,-2.828125 1,-3.359375 1.09375,-3.734375 1.25,-4.28125 1.6875,-4.4375 1.984375,-4.4375 c 0.375,0 0.734375,0.234375 0.859375,0.640625 0.109375,0.375 0.125,0.875 0.125,1.484375 0,0.515625 0,1.03125 -0.09375,1.46875 -0.140625,0.640625 -0.609375,0.78125 -0.890625,0.78125 z m 0,0"
               style="stroke:none"
               inkscape:connector-curvature="0" />
          </symbol>
        </g>
      </defs>
      <g
         id="textext-c9825e95-4">
        <g
           id="g19611"
           style="fill:#000000;fill-opacity:1">
          <use
             id="use19613"
             y="134.765"
             x="223.43201"
             xlink:href="#textext-c9825e95-0"
             width="744.09448"
             height="1052.3622" />
        </g>
        <g
           id="g19615"
           style="fill:#000000;fill-opacity:1">
          <use
             id="use19617"
             y="134.765"
             x="226.2"
             xlink:href="#textext-c9825e95-2"
             width="744.09448"
             height="1052.3622" />
        </g>
        <g
           id="g19619"
           style="fill:#000000;fill-opacity:1">
          <use
             id="use19621"
             y="136.259"
             x="230.951"
             xlink:href="#textext-c9825e95-3"
             width="744.09448"
             height="1052.3622" />
        </g>
        <g
           id="g19623"
           style="fill:#000000;fill-opacity:1">
          <use
             id="use19625"
             y="134.765"
             x="235.42101"
             xlink:href="#textext-c9825e95-1"
             width="744.09448"
             height="1052.3622" />
        </g>
      </g>
    </g>
    <g
       ns0:text="$|e\\rangle$\n\n"
       ns0:preamble=""
       transform="matrix(2.1602299,0,0,1.7655757,-312.7628,-180.12862)"
       id="g19785">
      <defs
         id="defs19787">
        <g
           id="g19789">
          <symbol
             overflow="visible"
             id="textext-d46e017b-0"
             style="overflow:visible">
            <path
               style="stroke:none"
               d="m 1.578125,-7.140625 c 0,-0.140625 0,-0.34375 -0.1875,-0.34375 -0.203125,0 -0.203125,0.203125 -0.203125,0.34375 l 0,9.296875 c 0,0.140625 0,0.34375 0.203125,0.34375 0.1875,0 0.1875,-0.203125 0.1875,-0.34375 z m 0,0"
               id="path19792"
               inkscape:connector-curvature="0" />
          </symbol>
          <symbol
             overflow="visible"
             id="textext-d46e017b-1"
             style="overflow:visible">
            <path
               style="stroke:none"
               d="m 2.71875,-2.3125 c 0.046875,-0.125 0.046875,-0.171875 0.046875,-0.1875 0,0 0,-0.046875 -0.046875,-0.171875 L 0.984375,-7.25 C 0.921875,-7.375 0.890625,-7.484375 0.75,-7.484375 c -0.109375,0 -0.1875,0.09375 -0.1875,0.203125 0,0.015625 0,0.0625 0.046875,0.1875 l 1.75,4.59375 -1.75,4.609375 C 0.5625,2.234375 0.5625,2.28125 0.5625,2.296875 0.5625,2.40625 0.640625,2.5 0.75,2.5 0.890625,2.5 0.921875,2.40625 0.96875,2.296875 z m 0,0"
               id="path19795"
               inkscape:connector-curvature="0" />
          </symbol>
          <symbol
             overflow="visible"
             id="textext-d46e017b-2"
             style="overflow:visible">
            <path
               style="stroke:none"
               d="m 1.859375,-2.296875 c 0.296875,0 1.03125,-0.03125 1.53125,-0.234375 0.703125,-0.296875 0.75,-0.890625 0.75,-1.03125 0,-0.4375 -0.375,-0.84375 -1.0625,-0.84375 -1.109375,0 -2.625,0.96875 -2.625,2.71875 0,1.015625 0.59375,1.796875 1.578125,1.796875 1.421875,0 2.25,-1.0625 2.25,-1.171875 0,-0.0625 -0.046875,-0.140625 -0.109375,-0.140625 -0.0625,0 -0.078125,0.03125 -0.140625,0.109375 -0.78125,0.984375 -1.875,0.984375 -1.984375,0.984375 -0.78125,0 -0.875,-0.84375 -0.875,-1.15625 0,-0.125 0.015625,-0.421875 0.15625,-1.03125 z m -0.46875,-0.21875 C 1.78125,-4.03125 2.8125,-4.1875 3.078125,-4.1875 c 0.453125,0 0.734375,0.296875 0.734375,0.625 0,1.046875 -1.59375,1.046875 -2.015625,1.046875 z m 0,0"
               id="path19798"
               inkscape:connector-curvature="0" />
          </symbol>
        </g>
      </defs>
      <g
         id="textext-d46e017b-3">
        <g
           style="fill:#000000;fill-opacity:1"
           id="g19801">
          <use
             xlink:href="#textext-d46e017b-0"
             x="223.43201"
             y="134.765"
             id="use19803"
             width="744.09448"
             height="1052.3622" />
        </g>
        <g
           style="fill:#000000;fill-opacity:1"
           id="g19805">
          <use
             xlink:href="#textext-d46e017b-2"
             x="226.2"
             y="134.765"
             id="use19807"
             width="744.09448"
             height="1052.3622" />
        </g>
        <g
           style="fill:#000000;fill-opacity:1"
           id="g19809">
          <use
             xlink:href="#textext-d46e017b-1"
             x="230.838"
             y="134.765"
             id="use19811"
             width="744.09448"
             height="1052.3622" />
        </g>
      </g>
    </g>
    <g
       id="g19923"
       transform="matrix(2.1602299,0,0,1.7655757,-244.32046,-31.816935)"
       ns0:preamble=""
       ns0:text="$|g_1\\rangle$\n\n">
      <defs
         id="defs19925">
        <g
           id="g19927">
          <symbol
             id="textext-f8d38216-0"
             overflow="visible"
             style="overflow:visible">
            <path
               id="path19930"
               d="m 1.578125,-7.140625 c 0,-0.140625 0,-0.34375 -0.1875,-0.34375 -0.203125,0 -0.203125,0.203125 -0.203125,0.34375 l 0,9.296875 c 0,0.140625 0,0.34375 0.203125,0.34375 0.1875,0 0.1875,-0.203125 0.1875,-0.34375 z m 0,0"
               style="stroke:none"
               inkscape:connector-curvature="0" />
          </symbol>
          <symbol
             id="textext-f8d38216-1"
             overflow="visible"
             style="overflow:visible">
            <path
               id="path19933"
               d="m 2.71875,-2.3125 c 0.046875,-0.125 0.046875,-0.171875 0.046875,-0.1875 0,0 0,-0.046875 -0.046875,-0.171875 L 0.984375,-7.25 C 0.921875,-7.375 0.890625,-7.484375 0.75,-7.484375 c -0.109375,0 -0.1875,0.09375 -0.1875,0.203125 0,0.015625 0,0.0625 0.046875,0.1875 l 1.75,4.59375 -1.75,4.609375 C 0.5625,2.234375 0.5625,2.28125 0.5625,2.296875 0.5625,2.40625 0.640625,2.5 0.75,2.5 0.890625,2.5 0.921875,2.40625 0.96875,2.296875 z m 0,0"
               style="stroke:none"
               inkscape:connector-curvature="0" />
          </symbol>
          <symbol
             id="textext-f8d38216-2"
             overflow="visible"
             style="overflow:visible">
            <path
               id="path19936"
               d="M 4.6875,-3.765625 C 4.703125,-3.8125 4.71875,-3.875 4.71875,-3.9375 c 0,-0.171875 -0.109375,-0.265625 -0.28125,-0.265625 -0.09375,0 -0.375,0.0625 -0.40625,0.421875 -0.1875,-0.359375 -0.53125,-0.625 -0.9375,-0.625 -1.125,0 -2.359375,1.390625 -2.359375,2.828125 0,0.984375 0.59375,1.578125 1.3125,1.578125 0.59375,0 1.0625,-0.46875 1.15625,-0.578125 L 3.21875,-0.5625 C 3.015625,0.3125 2.890625,0.734375 2.890625,0.75 2.84375,0.84375 2.515625,1.828125 1.453125,1.828125 1.265625,1.828125 0.9375,1.8125 0.65625,1.71875 0.953125,1.640625 1.0625,1.375 1.0625,1.203125 c 0,-0.15625 -0.109375,-0.34375 -0.375,-0.34375 -0.21875,0 -0.53125,0.171875 -0.53125,0.578125 0,0.40625 0.359375,0.609375 1.3125,0.609375 1.25,0 1.96875,-0.78125 2.125,-1.375 z M 3.40625,-1.28125 C 3.34375,-1.015625 3.109375,-0.765625 2.890625,-0.578125 2.6875,-0.40625 2.375,-0.21875 2.078125,-0.21875 c -0.5,0 -0.640625,-0.515625 -0.640625,-0.921875 0,-0.46875 0.28125,-1.65625 0.5625,-2.15625 C 2.265625,-3.78125 2.6875,-4.1875 3.109375,-4.1875 c 0.65625,0 0.796875,0.8125 0.796875,0.859375 0,0.046875 -0.015625,0.109375 -0.03125,0.140625 z m 0,0"
               style="stroke:none"
               inkscape:connector-curvature="0" />
          </symbol>
          <symbol
             id="textext-f8d38216-3"
             overflow="visible"
             style="overflow:visible">
            <path
               id="path19939"
               d="m 2.328125,-4.4375 c 0,-0.1875 0,-0.1875 -0.203125,-0.1875 -0.453125,0.4375 -1.078125,0.4375 -1.359375,0.4375 l 0,0.25 c 0.15625,0 0.625,0 1,-0.1875 l 0,3.546875 c 0,0.234375 0,0.328125 -0.6875,0.328125 l -0.265625,0 0,0.25 c 0.125,0 0.984375,-0.03125 1.234375,-0.03125 0.21875,0 1.09375,0.03125 1.25,0.03125 l 0,-0.25 -0.265625,0 c -0.703125,0 -0.703125,-0.09375 -0.703125,-0.328125 z m 0,0"
               style="stroke:none"
               inkscape:connector-curvature="0" />
          </symbol>
        </g>
      </defs>
      <g
         id="textext-f8d38216-4">
        <g
           id="g19942"
           style="fill:#000000;fill-opacity:1">
          <use
             id="use19944"
             y="134.765"
             x="223.43201"
             xlink:href="#textext-f8d38216-0"
             width="744.09448"
             height="1052.3622" />
        </g>
        <g
           id="g19946"
           style="fill:#000000;fill-opacity:1">
          <use
             id="use19948"
             y="134.765"
             x="226.2"
             xlink:href="#textext-f8d38216-2"
             width="744.09448"
             height="1052.3622" />
        </g>
        <g
           id="g19950"
           style="fill:#000000;fill-opacity:1">
          <use
             id="use19952"
             y="136.259"
             x="230.951"
             xlink:href="#textext-f8d38216-3"
             width="744.09448"
             height="1052.3622" />
        </g>
        <g
           id="g19954"
           style="fill:#000000;fill-opacity:1">
          <use
             id="use19956"
             y="134.765"
             x="235.42101"
             xlink:href="#textext-f8d38216-1"
             width="744.09448"
             height="1052.3622" />
        </g>
      </g>
    </g>
    <path
       style="fill:none;stroke:#000000;stroke-width:1.15765512px;stroke-linecap:butt;stroke-linejoin:miter;stroke-opacity:1"
       d="m 107.30778,182.36218 42.69222,0"
       id="path3052"
       inkscape:connector-curvature="0" />
    <path
       inkscape:connector-curvature="0"
       id="path3054"
       d="m 119.54695,63.717037 42.69218,0"
       style="fill:none;stroke:#000000;stroke-width:1.15765512px;stroke-linecap:butt;stroke-linejoin:miter;stroke-opacity:1" />
    <path
       style="fill:none;stroke:#000000;stroke-width:1.15765512px;stroke-linecap:butt;stroke-linejoin:miter;stroke-opacity:1"
       d="m 237.3078,182.36218 42.6922,0"
       id="path3056"
       inkscape:connector-curvature="0" />
    <path
       inkscape:connector-curvature="0"
       id="path3058"
       d="m 117.30782,82.362183 42.69218,0"
       style="fill:none;stroke:#000000;stroke-width:1.15765512;stroke-linecap:butt;stroke-linejoin:miter;stroke-miterlimit:4;stroke-opacity:1;stroke-dasharray:1.15765513, 4.63062052;stroke-dashoffset:0" />
    <path
       inkscape:connector-curvature="0"
       id="path3060"
       d="m 108.87389,63.717037 0,21.346098"
       style="fill:none;stroke:#000000;stroke-width:0.42692214;stroke-linecap:butt;stroke-linejoin:miter;stroke-miterlimit:4;stroke-opacity:1;stroke-dasharray:none;marker-start:url(#Arrow1Lstart);marker-end:url(#Arrow1Lend)" />
    <g
       id="g4288"
       ns0:preamble=""
       ns0:text="$\\nu $\n"
       transform="matrix(2.0362081,0,0,2.0362052,-368.12214,-195.85079)">
      <defs
         id="defs4290">
        <g
           id="g4292">
          <symbol
             id="textext-407b4369-0"
             overflow="visible"
             style="overflow:visible">
            <path
               id="path4295"
               d="m 2.234375,-4.296875 c 0,-0.015625 0,-0.109375 -0.125,-0.109375 -0.234375,0 -0.96875,0.078125 -1.21875,0.09375 -0.078125,0.015625 -0.1875,0.03125 -0.1875,0.203125 0,0.125 0.078125,0.125 0.234375,0.125 0.484375,0 0.5,0.0625 0.5,0.171875 0,0.0625 -0.125,0.53125 -0.1875,0.796875 L 0.640625,-0.5625 C 0.59375,-0.421875 0.53125,-0.140625 0.53125,-0.125 0.53125,-0.015625 0.625,0 0.6875,0 l 0.140625,0 c 0.703125,-0.125 1.78125,-0.515625 2.8125,-1.46875 1.3125,-1.21875 1.578125,-2.578125 1.578125,-2.671875 0,-0.171875 -0.109375,-0.265625 -0.28125,-0.265625 -0.078125,0 -0.3125,0.046875 -0.390625,0.328125 -0.640625,2.265625 -2.15625,3.375 -3.296875,3.75 z m 0,0"
               style="stroke:none"
               inkscape:connector-curvature="0" />
          </symbol>
        </g>
      </defs>
      <g
         id="textext-407b4369-1">
        <g
           id="g4298"
           style="fill:#000000;fill-opacity:1">
          <use
             id="use4300"
             y="134.765"
             x="223.43201"
             xlink:href="#textext-407b4369-0"
             width="744.09448"
             height="1052.3622" />
        </g>
      </g>
    </g>
    <path
       style="fill:#959595;fill-opacity:1;fill-rule:nonzero;stroke:#000000;stroke-width:0.27732384;stroke-linejoin:miter;stroke-miterlimit:4;stroke-opacity:1;stroke-dasharray:none;stroke-dashoffset:0"
       d="m 326.50811,41.370926 0,177.636574 -24.68562,0 0,-1.00964 c 4.02263,-17.53766 8.39538,-50.28972 8.39538,-87.80865 0,-37.518923 -4.37275,-70.270961 -8.39538,-87.808632 l 0,-1.009652 z"
       id="path4384"
       inkscape:connector-curvature="0"
       sodipodi:nodetypes="ccccsccc" />
    <path
       inkscape:connector-curvature="0"
       id="path6815"
       d="m 237.3078,82.362183 42.6922,0"
       style="fill:none;stroke:#000000;stroke-width:1.15765512px;stroke-linecap:butt;stroke-linejoin:miter;stroke-opacity:1" />
    <g
       ns0:text="$|g_1\\rangle a^\\dagger$\n\n\n"
       ns0:preamble=""
       transform="matrix(2.1602299,0,0,1.7655757,-245.32046,-179.81694)"
       id="g6942">
      <defs
         id="defs6944">
        <g
           id="g6946">
          <symbol
             overflow="visible"
             id="textext-a5d954f4-0">
            <path
               style="stroke:none;"
               d="M 1.578125 -7.140625 C 1.578125 -7.28125 1.578125 -7.484375 1.390625 -7.484375 C 1.1875 -7.484375 1.1875 -7.28125 1.1875 -7.140625 L 1.1875 2.15625 C 1.1875 2.296875 1.1875 2.5 1.390625 2.5 C 1.578125 2.5 1.578125 2.296875 1.578125 2.15625 Z M 1.578125 -7.140625 "
               id="path6949" />
          </symbol>
          <symbol
             overflow="visible"
             id="textext-a5d954f4-1">
            <path
               style="stroke:none;"
               d="M 2.71875 -2.3125 C 2.765625 -2.4375 2.765625 -2.484375 2.765625 -2.5 C 2.765625 -2.5 2.765625 -2.546875 2.71875 -2.671875 L 0.984375 -7.25 C 0.921875 -7.375 0.890625 -7.484375 0.75 -7.484375 C 0.640625 -7.484375 0.5625 -7.390625 0.5625 -7.28125 C 0.5625 -7.265625 0.5625 -7.21875 0.609375 -7.09375 L 2.359375 -2.5 L 0.609375 2.109375 C 0.5625 2.234375 0.5625 2.28125 0.5625 2.296875 C 0.5625 2.40625 0.640625 2.5 0.75 2.5 C 0.890625 2.5 0.921875 2.40625 0.96875 2.296875 Z M 2.71875 -2.3125 "
               id="path6952" />
          </symbol>
          <symbol
             overflow="visible"
             id="textext-a5d954f4-2">
            <path
               style="stroke:none;"
               d="M 4.6875 -3.765625 C 4.703125 -3.8125 4.71875 -3.875 4.71875 -3.9375 C 4.71875 -4.109375 4.609375 -4.203125 4.4375 -4.203125 C 4.34375 -4.203125 4.0625 -4.140625 4.03125 -3.78125 C 3.84375 -4.140625 3.5 -4.40625 3.09375 -4.40625 C 1.96875 -4.40625 0.734375 -3.015625 0.734375 -1.578125 C 0.734375 -0.59375 1.328125 0 2.046875 0 C 2.640625 0 3.109375 -0.46875 3.203125 -0.578125 L 3.21875 -0.5625 C 3.015625 0.3125 2.890625 0.734375 2.890625 0.75 C 2.84375 0.84375 2.515625 1.828125 1.453125 1.828125 C 1.265625 1.828125 0.9375 1.8125 0.65625 1.71875 C 0.953125 1.640625 1.0625 1.375 1.0625 1.203125 C 1.0625 1.046875 0.953125 0.859375 0.6875 0.859375 C 0.46875 0.859375 0.15625 1.03125 0.15625 1.4375 C 0.15625 1.84375 0.515625 2.046875 1.46875 2.046875 C 2.71875 2.046875 3.4375 1.265625 3.59375 0.671875 Z M 3.40625 -1.28125 C 3.34375 -1.015625 3.109375 -0.765625 2.890625 -0.578125 C 2.6875 -0.40625 2.375 -0.21875 2.078125 -0.21875 C 1.578125 -0.21875 1.4375 -0.734375 1.4375 -1.140625 C 1.4375 -1.609375 1.71875 -2.796875 2 -3.296875 C 2.265625 -3.78125 2.6875 -4.1875 3.109375 -4.1875 C 3.765625 -4.1875 3.90625 -3.375 3.90625 -3.328125 C 3.90625 -3.28125 3.890625 -3.21875 3.875 -3.1875 Z M 3.40625 -1.28125 "
               id="path6955" />
          </symbol>
          <symbol
             overflow="visible"
             id="textext-a5d954f4-3">
            <path
               style="stroke:none;"
               d="M 3.71875 -3.765625 C 3.53125 -4.140625 3.25 -4.40625 2.796875 -4.40625 C 1.640625 -4.40625 0.40625 -2.9375 0.40625 -1.484375 C 0.40625 -0.546875 0.953125 0.109375 1.71875 0.109375 C 1.921875 0.109375 2.421875 0.0625 3.015625 -0.640625 C 3.09375 -0.21875 3.453125 0.109375 3.921875 0.109375 C 4.28125 0.109375 4.5 -0.125 4.671875 -0.4375 C 4.828125 -0.796875 4.96875 -1.40625 4.96875 -1.421875 C 4.96875 -1.53125 4.875 -1.53125 4.84375 -1.53125 C 4.75 -1.53125 4.734375 -1.484375 4.703125 -1.34375 C 4.53125 -0.703125 4.359375 -0.109375 3.953125 -0.109375 C 3.671875 -0.109375 3.65625 -0.375 3.65625 -0.5625 C 3.65625 -0.78125 3.671875 -0.875 3.78125 -1.3125 C 3.890625 -1.71875 3.90625 -1.828125 4 -2.203125 C 4.171875 -2.84375 4.203125 -3.03125 4.359375 -3.59375 C 4.421875 -3.875 4.421875 -3.890625 4.421875 -3.9375 C 4.421875 -4.109375 4.3125 -4.203125 4.140625 -4.203125 C 3.890625 -4.203125 3.75 -3.984375 3.71875 -3.765625 Z M 3.078125 -1.1875 C 3.015625 -1 3.015625 -0.984375 2.875 -0.8125 C 2.4375 -0.265625 2.03125 -0.109375 1.75 -0.109375 C 1.25 -0.109375 1.109375 -0.65625 1.109375 -1.046875 C 1.109375 -1.546875 1.421875 -2.765625 1.65625 -3.234375 C 1.96875 -3.8125 2.40625 -4.1875 2.8125 -4.1875 C 3.453125 -4.1875 3.59375 -3.375 3.59375 -3.3125 C 3.59375 -3.25 3.578125 -3.1875 3.5625 -3.140625 Z M 3.078125 -1.1875 "
               id="path6958" />
          </symbol>
          <symbol
             overflow="visible"
             id="textext-a5d954f4-4">
            <path
               style="stroke:none;"
               d="M 2.328125 -4.4375 C 2.328125 -4.625 2.328125 -4.625 2.125 -4.625 C 1.671875 -4.1875 1.046875 -4.1875 0.765625 -4.1875 L 0.765625 -3.9375 C 0.921875 -3.9375 1.390625 -3.9375 1.765625 -4.125 L 1.765625 -0.578125 C 1.765625 -0.34375 1.765625 -0.25 1.078125 -0.25 L 0.8125 -0.25 L 0.8125 0 C 0.9375 0 1.796875 -0.03125 2.046875 -0.03125 C 2.265625 -0.03125 3.140625 0 3.296875 0 L 3.296875 -0.25 L 3.03125 -0.25 C 2.328125 -0.25 2.328125 -0.34375 2.328125 -0.578125 Z M 2.328125 -4.4375 "
               id="path6961" />
          </symbol>
          <symbol
             overflow="visible"
             id="textext-a5d954f4-5">
            <path
               style="stroke:none;"
               d="M 1.90625 -2.90625 C 2.03125 -2.90625 2.109375 -2.875 2.28125 -2.828125 C 2.421875 -2.796875 2.640625 -2.734375 2.8125 -2.734375 C 3.0625 -2.734375 3.09375 -2.90625 3.09375 -3 C 3.09375 -3.046875 3.078125 -3.265625 2.8125 -3.265625 C 2.65625 -3.265625 2.453125 -3.21875 2.28125 -3.15625 C 2.078125 -3.109375 1.96875 -3.09375 1.90625 -3.09375 C 1.921875 -3.1875 1.921875 -3.390625 2 -3.8125 C 2.0625 -4.125 2.09375 -4.421875 2.09375 -4.578125 C 2.09375 -4.640625 2.09375 -4.90625 1.8125 -4.90625 C 1.546875 -4.90625 1.546875 -4.640625 1.546875 -4.578125 C 1.546875 -4.421875 1.59375 -4.140625 1.65625 -3.8125 C 1.71875 -3.390625 1.734375 -3.1875 1.734375 -3.09375 C 1.609375 -3.09375 1.53125 -3.125 1.359375 -3.171875 C 1.21875 -3.203125 1 -3.265625 0.84375 -3.265625 C 0.5625 -3.265625 0.546875 -3.046875 0.546875 -3 C 0.546875 -2.90625 0.578125 -2.734375 0.84375 -2.734375 C 0.984375 -2.734375 1.203125 -2.78125 1.359375 -2.84375 C 1.5625 -2.890625 1.671875 -2.90625 1.734375 -2.90625 C 1.734375 -2.796875 1.71875 -2.703125 1.65625 -2.421875 C 1.546875 -1.9375 1.546875 -1.890625 1.546875 -1.53125 C 1.546875 -0.765625 1.609375 0.390625 1.703125 1.375 C 1.703125 1.46875 1.734375 1.484375 1.8125 1.484375 C 1.875 1.484375 1.9375 1.484375 1.9375 1.40625 C 2.046875 0.46875 2.09375 -0.59375 2.09375 -1.53125 C 2.09375 -1.890625 2.09375 -1.9375 1.984375 -2.421875 C 1.921875 -2.703125 1.921875 -2.796875 1.90625 -2.90625 Z M 1.90625 -2.90625 "
               id="path6964" />
          </symbol>
        </g>
      </defs>
      <g
         id="textext-a5d954f4-6">
        <g
           style="fill:rgb(0%,0%,0%);fill-opacity:1;"
           id="g6967">
          <use
             xlink:href="#textext-a5d954f4-0"
             x="223.432"
             y="134.765"
             id="use6969" />
        </g>
        <g
           style="fill:rgb(0%,0%,0%);fill-opacity:1;"
           id="g6971">
          <use
             xlink:href="#textext-a5d954f4-2"
             x="226.2"
             y="134.765"
             id="use6973" />
        </g>
        <g
           style="fill:rgb(0%,0%,0%);fill-opacity:1;"
           id="g6975">
          <use
             xlink:href="#textext-a5d954f4-4"
             x="230.951"
             y="136.259"
             id="use6977" />
        </g>
        <g
           style="fill:rgb(0%,0%,0%);fill-opacity:1;"
           id="g6979">
          <use
             xlink:href="#textext-a5d954f4-1"
             x="235.421"
             y="134.765"
             id="use6981" />
        </g>
        <g
           style="fill:rgb(0%,0%,0%);fill-opacity:1;"
           id="g6983">
          <use
             xlink:href="#textext-a5d954f4-3"
             x="239.295"
             y="134.765"
             id="use6985" />
        </g>
        <g
           style="fill:rgb(0%,0%,0%);fill-opacity:1;"
           id="g6987">
          <use
             xlink:href="#textext-a5d954f4-5"
             x="244.561"
             y="131.149"
             id="use6989" />
        </g>
      </g>
    </g>
    <path
       sodipodi:nodetypes="ccaaaaaacc"
       inkscape:connector-curvature="0"
       id="path7104"
       d="m 230,77.362183 -6.66667,0 c 0,0 -3.56455,5.377555 -6.66667,5 -4.90488,-0.596965 -1.69762,-10 -6.66666,-10 -4.96904,0 -1.69763,10 -6.66667,10 -4.96903,0 -1.69763,-10 -6.66666,-10 -4.96904,0 -1.69763,10 -6.66667,10 -4.96904,0 -1.76178,-9.403035 -6.66666,-10 -3.10212,-0.377555 -6.66667,5 -6.66667,5 l -6.66667,0"
       style="fill:none;stroke:#000000;stroke-width:0.57735026000000000px;stroke-linecap:butt;stroke-linejoin:miter;stroke-opacity:1;marker-start:url(#Arrow1Lstart);marker-end:url(#Arrow2Lend)" />
    <path
       style="fill:none;stroke:#000000;stroke-width:0.62158155000000004px;stroke-linecap:butt;stroke-linejoin:miter;stroke-opacity:1;marker-start:url(#Arrow1Lstart);marker-end:url(#Arrow1Lend)"
       d="m 135,176.45309 0,-7.72727 c 0,0 -5.37755,-4.13164 -5,-7.72727 0.59696,-5.68521 10,-1.96771 10,-7.72728 0,-5.75957 -10,-1.9677 -10,-7.72727 0,-5.75957 10,-1.9677 10,-7.72727 0,-5.75957 -10,-1.96771 -10,-7.72728 0,-5.75956 10,-1.9677 10,-7.72727 0,-5.75957 -10,-1.9677 -10,-7.72727 0,-5.75957 9.40303,-2.04207 10,-7.72727 0.37755,-3.59563 -5,-7.727273 -5,-7.727273 l 0,-7.727272"
       id="path7108"
       inkscape:connector-curvature="0"
       sodipodi:nodetypes="ccaaaaaaaacc" />
    <path
       inkscape:connector-curvature="0"
       id="path7110"
       d="m 290,116.77745 0,31.1554 23.33333,-7.78534 0,7.78534 L 360,132.36218 l -46.66667,-15.58473 0,7.7994 L 290,116.77745 z"
       style="fill:#ffffff;fill-opacity:1;fill-rule:nonzero;stroke:#000000;stroke-width:0.23656283;stroke-linejoin:miter;stroke-miterlimit:4;stroke-opacity:1;stroke-dasharray:none;stroke-dashoffset:0" />
    <path
       sodipodi:nodetypes="ccaaaaaaaacc"
       inkscape:connector-curvature="0"
       id="path7115"
       d="m 265,176.45309 0,-7.72727 c 0,0 -5.37755,-4.13164 -5,-7.72727 0.59696,-5.68521 10,-1.96771 10,-7.72728 0,-5.75957 -10,-1.9677 -10,-7.72727 0,-5.75957 10,-1.9677 10,-7.72727 0,-5.75957 -10,-1.96771 -10,-7.72728 0,-5.75956 10,-1.9677 10,-7.72727 0,-5.75957 -10,-1.9677 -10,-7.72727 0,-5.75957 9.40303,-2.04207 10,-7.72727 0.37755,-3.59563 -5,-7.72727 -5,-7.72727 l 0,-7.727272"
       style="fill:none;stroke:#000000;stroke-width:0.622;stroke-linecap:butt;stroke-linejoin:miter;stroke-opacity:1;stroke-miterlimit:4;stroke-dasharray:none;marker-end:none;marker-start:url(#Arrow1Lstart)" />
    <g
       ns0:text="$\\Omega $\n\n"
       ns0:preamble=""
       transform="matrix(2.0362081,0,0,2.0362052,-345.12214,-130.85079)"
       id="g9372">
      <defs
         id="defs9374">
        <g
           id="g9376">
          <symbol
             overflow="visible"
             id="textext-8914fb91-0">
            <path
               style="stroke:none;"
               d="M 6.75 -1.609375 L 6.5 -1.609375 C 6.453125 -1.359375 6.40625 -1.125 6.3125 -0.890625 C 6.265625 -0.734375 6.234375 -0.640625 5.65625 -0.640625 L 4.859375 -0.640625 C 5 -1.203125 5.296875 -1.6875 5.75 -2.34375 C 6.21875 -3.046875 6.625 -3.734375 6.625 -4.53125 C 6.625 -5.90625 5.28125 -7.03125 3.59375 -7.03125 C 1.890625 -7.03125 0.5625 -5.890625 0.5625 -4.53125 C 0.5625 -3.734375 0.96875 -3.046875 1.4375 -2.34375 C 1.875 -1.6875 2.1875 -1.203125 2.328125 -0.640625 L 1.53125 -0.640625 C 0.953125 -0.640625 0.921875 -0.734375 0.875 -0.875 C 0.78125 -1.109375 0.734375 -1.359375 0.6875 -1.609375 L 0.4375 -1.609375 L 0.765625 0 L 2.359375 0 C 2.578125 0 2.609375 0 2.609375 -0.203125 C 2.609375 -0.90625 2.296875 -1.78125 2.078125 -2.421875 C 1.859375 -3 1.578125 -3.78125 1.578125 -4.53125 C 1.578125 -6.125 2.6875 -6.8125 3.59375 -6.8125 C 4.546875 -6.8125 5.609375 -6.09375 5.609375 -4.53125 C 5.609375 -3.78125 5.328125 -3.03125 5.046875 -2.21875 C 4.890625 -1.796875 4.578125 -0.890625 4.578125 -0.203125 C 4.578125 0 4.609375 0 4.828125 0 L 6.421875 0 Z M 6.75 -1.609375 "
               id="path9379" />
          </symbol>
        </g>
      </defs>
      <g
         id="textext-8914fb91-1">
        <g
           style="fill:rgb(0%,0%,0%);fill-opacity:1;"
           id="g9382">
          <use
             xlink:href="#textext-8914fb91-0"
             x="223.432"
             y="134.765"
             id="use9384" />
        </g>
      </g>
    </g>
    <g
       id="g5890"
       transform="matrix(2.0362081,0,0,2.0362052,-258.12214,-174.85079)"
       ns0:preamble=""
       ns0:text="$h$\n\n\n">
      <defs
         id="defs5892">
        <g
           id="g5894">
          <symbol
             id="textext-f8f53a71-0"
             overflow="visible">
            <path
               id="path5897"
               d="M 2.859375 -6.8125 C 2.859375 -6.8125 2.859375 -6.921875 2.734375 -6.921875 C 2.5 -6.921875 1.78125 -6.84375 1.515625 -6.8125 C 1.4375 -6.8125 1.328125 -6.796875 1.328125 -6.625 C 1.328125 -6.5 1.421875 -6.5 1.5625 -6.5 C 2.046875 -6.5 2.0625 -6.4375 2.0625 -6.328125 L 2.03125 -6.125 L 0.59375 -0.390625 C 0.546875 -0.25 0.546875 -0.234375 0.546875 -0.171875 C 0.546875 0.0625 0.75 0.109375 0.84375 0.109375 C 1 0.109375 1.15625 -0.015625 1.203125 -0.15625 L 1.390625 -0.90625 C 1.46875 -1.203125 1.546875 -1.5 1.609375 -1.796875 C 1.671875 -2.03125 1.734375 -2.25 1.78125 -2.46875 C 1.796875 -2.53125 1.890625 -2.859375 1.890625 -2.921875 C 1.921875 -3.015625 2.234375 -3.5625 2.578125 -3.84375 C 2.796875 -4 3.09375 -4.1875 3.53125 -4.1875 C 3.953125 -4.1875 4.0625 -3.84375 4.0625 -3.484375 C 4.0625 -2.953125 3.6875 -1.859375 3.453125 -1.25 C 3.375 -1.03125 3.3125 -0.90625 3.3125 -0.703125 C 3.3125 -0.234375 3.671875 0.109375 4.140625 0.109375 C 5.078125 0.109375 5.4375 -1.34375 5.4375 -1.421875 C 5.4375 -1.53125 5.359375 -1.53125 5.328125 -1.53125 C 5.21875 -1.53125 5.21875 -1.5 5.171875 -1.34375 C 5.03125 -0.8125 4.703125 -0.109375 4.15625 -0.109375 C 3.984375 -0.109375 3.921875 -0.203125 3.921875 -0.4375 C 3.921875 -0.6875 4 -0.921875 4.09375 -1.140625 C 4.25 -1.578125 4.703125 -2.765625 4.703125 -3.34375 C 4.703125 -3.984375 4.3125 -4.40625 3.5625 -4.40625 C 2.9375 -4.40625 2.453125 -4.09375 2.078125 -3.640625 Z M 2.859375 -6.8125 "
               style="stroke:none;" />
          </symbol>
        </g>
      </defs>
      <g
         id="textext-f8f53a71-1">
        <g
           id="g5900"
           style="fill:rgb(0%,0%,0%);fill-opacity:1;">
          <use
             id="use5902"
             y="134.765"
             x="223.432"
             xlink:href="#textext-f8f53a71-0" />
        </g>
      </g>
    </g>
  </g>
</svg>
